<svg width="36" height="36" viewBox="0 0 36 36" fill="none" xmlns="http://www.w3.org/2000/svg">
<path d="M36 18.3998C36 16.9198 35.8775 15.8398 35.6122 14.7198H18.3673V21.3998H28.4897C28.2857 23.0598 27.1837 25.5599 24.7346 27.2398L24.7003 27.4634L30.1528 31.6029L30.5306 31.6399C33.9999 28.4998 36 23.8798 36 18.3998Z" fill="#4285F4"/>
<path d="M18.3663 36.0002C23.3254 36.0002 27.4886 34.4001 30.5296 31.6402L24.7336 27.24C23.1826 28.3001 21.101 29.0401 18.3663 29.0401C13.5092 29.0401 9.3868 25.9001 7.91728 21.5601L7.70188 21.578L2.03227 25.878L1.95813 26.08C4.9785 31.9601 11.1826 36.0002 18.3663 36.0002Z" fill="#34A853"/>
<path d="M7.9183 21.5603C7.53055 20.4403 7.30615 19.2402 7.30615 18.0003C7.30615 16.7602 7.53056 15.5603 7.8979 14.4403L7.88763 14.2017L2.14696 9.83264L1.95914 9.92019C0.714295 12.3602 0 15.1003 0 18.0003C0 20.9003 0.714295 23.6402 1.95914 26.0803L7.9183 21.5603Z" fill="#FBBC05"/>
<path d="M18.3664 6.95997C21.8154 6.95997 24.1419 8.41997 25.4684 9.64006L30.6521 4.68001C27.4685 1.78001 23.3256 0 18.3664 0C11.1826 0 4.97852 4.03998 1.95813 9.91995L7.89691 14.44C9.38685 10.1 13.5093 6.95997 18.3664 6.95997Z" fill="#EB4335"/>
</svg>
